<svg width="17" height="19" viewBox="0 0 17 19" fill="none" xmlns="http://www.w3.org/2000/svg">
<path fill-rule="evenodd" clip-rule="evenodd" d="M2.25252 5.77935C2.3332 5.69231 2.44529 5.64233 2.56334 5.64233H14.4524C14.5704 5.64233 14.6825 5.69231 14.7632 5.77935C14.843 5.86639 14.8838 5.9836 14.8762 6.10252L14.0269 18.5983C14.0116 18.825 13.8265 18.9999 13.6032 18.9999H3.41255C3.18921 18.9999 3.00409 18.825 2.9888 18.5983L2.13958 6.10252C2.13194 5.9836 2.1727 5.86639 2.25252 5.77935ZM3.01853 6.50411L3.80915 18.1381H13.2066L13.9972 6.50411H3.01853Z" fill="#E10101"/>
<path fill-rule="evenodd" clip-rule="evenodd" d="M8.08203 15.9835V8.22754H8.93125V15.9835H8.08203Z" fill="#E10101"/>
<path fill-rule="evenodd" clip-rule="evenodd" d="M5.53594 16.0077L5.11133 8.25165L5.95884 8.20337L6.38345 15.9594L5.53594 16.0077Z" fill="#E10101"/>
<path fill-rule="evenodd" clip-rule="evenodd" d="M11.4774 16.0077L11.902 8.25165L11.0545 8.20337L10.6299 15.9594L11.4774 16.0077Z" fill="#E10101"/>
<path fill-rule="evenodd" clip-rule="evenodd" d="M2.13867 5.21182C2.13867 4.0217 3.08895 3.05737 4.26172 3.05737H12.7539C13.9267 3.05737 14.877 4.0217 14.877 5.21182V6.0736C14.877 6.31145 14.6867 6.50449 14.4523 6.50449H2.56328C2.3289 6.50449 2.13867 6.31145 2.13867 6.0736V5.21182ZM4.26172 3.91915C3.55857 3.91915 2.98789 4.49827 2.98789 5.21182V5.64271H14.0277V5.21182C14.0277 4.49827 13.4571 3.91915 12.7539 3.91915H4.26172Z" fill="#E10101"/>
<path fill-rule="evenodd" clip-rule="evenodd" d="M8.50781 1.76485C7.80466 1.76485 7.23398 2.34397 7.23398 3.05752V3.48841H6.38477V3.05752C6.38477 1.86741 7.33504 0.903076 8.50781 0.903076C9.68058 0.903076 10.6309 1.86741 10.6309 3.05752V3.48841H9.78164V3.05752C9.78164 2.34397 9.21097 1.76485 8.50781 1.76485Z" fill="#E10101"/>
<path fill-rule="evenodd" clip-rule="evenodd" d="M17 6.50474H0.015625V5.64233H17V6.50474Z" fill="#E10101"/>
</svg>
