<svg width="104" height="85" viewBox="0 0 104 85" fill="none" xmlns="http://www.w3.org/2000/svg">
<g filter="url(#filter0_di_1320_133)">
<path fill-rule="evenodd" clip-rule="evenodd" d="M59.9359 6.2043C57.9101 6.16572 56.2366 7.77668 56.198 9.80247C56.1594 11.8283 57.7704 13.5018 59.7962 13.5404L66.9183 13.676L53.1006 27.4792L46.4624 20.5832C45.7809 19.8752 44.8438 19.4702 43.8612 19.459C42.8786 19.4478 41.9326 19.8312 41.2351 20.5234L25.4618 36.1768C24.0237 37.604 24.0148 39.9269 25.442 41.3651C26.8693 42.8032 29.1921 42.8121 30.6303 41.3848L43.7596 28.3554L50.4063 35.2602C51.0893 35.9697 52.0288 36.3748 53.0135 36.3845C53.9982 36.3941 54.9455 36.0074 55.6422 35.3115L71.9767 18.9942L71.8483 25.7352C71.8097 27.761 73.4207 29.4345 75.4465 29.4731C77.4723 29.5117 79.1458 27.9007 79.1844 25.8749L79.482 10.2459C79.5206 8.2201 77.9096 6.54659 75.8838 6.50801L59.9359 6.2043Z" fill="url(#paint0_linear_1320_133)"/>
</g>
<defs>
<filter id="filter0_di_1320_133" x="0.539429" y="-6.63198" width="102.781" height="91.2556" filterUnits="userSpaceOnUse" color-interpolation-filters="sRGB">
<feFlood flood-opacity="0" result="BackgroundImageFix"/>
<feColorMatrix in="SourceAlpha" type="matrix" values="0 0 0 0 0 0 0 0 0 0 0 0 0 0 0 0 0 0 127 0" result="hardAlpha"/>
<feOffset dy="18.3366"/>
<feGaussianBlur stdDeviation="11.9188"/>
<feColorMatrix type="matrix" values="0 0 0 0 0.679167 0 0 0 0 0.104705 0 0 0 0 0.104705 0 0 0 0.37 0"/>
<feBlend mode="normal" in2="BackgroundImageFix" result="effect1_dropShadow_1320_133"/>
<feBlend mode="normal" in="SourceGraphic" in2="effect1_dropShadow_1320_133" result="shape"/>
<feColorMatrix in="SourceAlpha" type="matrix" values="0 0 0 0 0 0 0 0 0 0 0 0 0 0 0 0 0 0 127 0" result="hardAlpha"/>
<feOffset dy="-18.3366"/>
<feGaussianBlur stdDeviation="6.4178"/>
<feComposite in2="hardAlpha" operator="arithmetic" k2="-1" k3="1"/>
<feColorMatrix type="matrix" values="0 0 0 0 0 0 0 0 0 0 0 0 0 0 0 0 0 0 0.2 0"/>
<feBlend mode="normal" in2="shape" result="effect2_innerShadow_1320_133"/>
</filter>
<linearGradient id="paint0_linear_1320_133" x1="52.2808" y1="6.05851" x2="51.5792" y2="42.8983" gradientUnits="userSpaceOnUse">
<stop stop-color="#EE7878"/>
<stop offset="1" stop-color="#C6512C"/>
</linearGradient>
</defs>
</svg>
