<svg width="62" height="62" viewBox="0 0 62 62" fill="none" xmlns="http://www.w3.org/2000/svg">
<rect x="0.802734" y="0.802795" width="60.5379" height="60.5379" rx="22.2222" fill="#FDC55E"/>
<path d="M26.5056 26.3638C26.3903 27.6156 27.1978 28.5126 28.3051 28.3628L33.3267 27.6836C34.9907 27.4586 36.4801 25.7512 36.6534 23.8701L36.758 22.7347L30.732 23.5497C30.8473 22.298 30.0398 21.4009 28.9325 21.5507C27.8252 21.7005 26.83 22.8413 26.7147 24.0931L26.5056 26.3638Z" fill="white"/>
<path d="M17.3066 22.5109L25.3623 21.44L24.9536 25.931L16.8979 27.0018L17.3066 22.5109Z" fill="white"/>
<path d="M16.8066 30.0016L24.8623 28.9308L24.4536 33.4217L16.3979 34.4926L16.8066 30.0016Z" fill="white"/>
<path d="M28.1844 38.4031C26.7062 38.6022 25.5113 37.8574 24.9394 36.6044C24.2749 36.6938 14.0824 38.0662 14.2882 38.0385L14.0805 40.3015L16.1973 40.0164C14.7621 41.6303 13.7646 43.7414 13.5608 45.9614L13.4568 47.0933L27.5609 45.1942L28.1844 38.4031Z" fill="white"/>
<path d="M26.0193 34.1744C25.897 35.4842 26.7346 36.421 27.8859 36.2622L29.9743 35.9741L29.0872 45.4779L33.264 44.9017L34.373 33.0219C34.4953 31.7121 33.6576 30.7752 32.5063 30.9341C32.2743 30.9661 28.1035 31.5415 28.3295 31.5103C27.5653 31.6157 26.8813 31.4617 26.3027 31.1376L26.0193 34.1744Z" fill="white"/>
<path d="M20.9863 49.0956L14.125 49.9522C14.6955 51.1616 15.8704 51.9574 17.3269 51.7756C18.7834 51.5937 20.1901 50.4757 20.9863 49.0956Z" fill="white"/>
<path d="M44.0984 24.4323L44.5354 19.7684L42.4894 20.0522C41.3594 20.209 40.3455 21.3801 40.2249 22.668C40.1042 23.9558 40.9224 24.8729 42.0524 24.7161L44.0984 24.4323Z" fill="white"/>
<path d="M43.6368 32.4077L43.5963 32.3357L43.4484 27.6862L42.1225 27.8703C41.3678 27.9751 40.6924 27.8231 40.1212 27.5027L39.3985 35.2112C39.1553 37.8049 37.1075 40.1711 34.8324 40.487L34.3915 45.19L36.454 44.9035C36.8187 41.0135 39.891 37.4637 43.3031 36.9899C44.8937 36.769 46.3335 37.2665 47.325 38.2423L47.3868 37.5832C47.657 34.7012 45.9903 32.5766 43.6368 32.4077V32.4077Z" fill="white"/>
<path d="M43.5724 40.0217L43.7128 44.3897L41.6563 45.0008L41.5151 40.6101C39.9709 41.5179 38.7752 43.323 38.5934 45.2628C38.3521 47.8379 39.9809 49.7491 42.2404 49.4357C44.4999 49.1222 46.6026 46.6934 46.8439 44.1183C47.0685 41.721 45.59 39.9999 43.5724 40.0217V40.0217Z" fill="white"/>
<path d="M27.3303 16.308C27.212 17.5789 28.0156 18.5615 29.1341 18.4078C30.2527 18.254 31.2625 17.0221 31.3809 15.7512L31.488 14.6005L27.4375 15.1573L27.3303 16.308Z" fill="white"/>
<path d="M33.7269 9.31557L31.4229 9.62209C31.135 9.00894 30.5651 8.62653 29.8337 8.72384C28.7303 8.87063 27.7443 9.99542 27.6313 11.2362L27.529 12.3595L33.5223 11.5622L33.7269 9.31557Z" fill="white"/>
</svg>
